<svg xmlns="http://www.w3.org/2000/svg" version="1.1" xmlns:xlink="http://www.w3.org/1999/xlink" xmlns:svgjs="http://svgjs.dev/svgjs" width="1000" height="1000" viewBox="0 0 1000 1000"><rect width="1000" height="1000" fill="#ffffff"></rect><g transform="matrix(0.7,0,0,0.7,149.57576192144973,450.2782366519602)"><svg viewBox="0 0 396 57" data-background-color="#ffffff" preserveAspectRatio="xMidYMid meet" height="143" width="1000" xmlns="http://www.w3.org/2000/svg" xmlns:xlink="http://www.w3.org/1999/xlink"><g id="tight-bounds" transform="matrix(1,0,0,1,0.23999765651433336,-0.18690725428228916)"><svg viewBox="0 0 395.52 57.373814502221556" height="57.373814502221556" width="395.52"><g><svg viewBox="0 0 503.6418012900771 73.05787642289042" height="57.373814502221556" width="395.52"><g><rect width="4.767318879554794" height="63.43665101842871" x="407.9998923548555" y="4.810612702230852" fill="#000000" opacity="1" stroke-width="0" stroke="transparent" fill-opacity="1" class="rect-o-0" data-fill-palette-color="primary" rx="1%" id="o-0" data-palette-color="#000000"></rect></g><g transform="matrix(1,0,0,1,0,10.09700028709991)"><svg viewBox="0 0 395.52 52.8638758486906" height="52.8638758486906" width="395.52"><g id="textblocktransform"><svg viewBox="0 0 395.52 52.8638758486906" height="52.8638758486906" width="395.52" id="textblock"><g><svg viewBox="0 0 395.52 52.8638758486906" height="52.8638758486906" width="395.52"><g transform="matrix(1,0,0,1,0,0)"><svg width="395.52" viewBox="2.9000000953674316 -32.45000076293945 257.7300109863281 34.45000076293945" height="52.8638758486906" data-palette-color="#000000"><path d="M26.45-8.6L26.6-8.35Q25.75-4.3 25.25 0.05L25.25 0.05 25 0.35Q14.5 0 9.85 0L9.85 0Q6.15 0 2.9 0.5L2.9 0.5 3.2-1.8Q5.45-2.1 6.28-2.98 7.1-3.85 7.1-6L7.1-6 7.15-27Q7.15-28.6 6.78-29.15 6.4-29.7 5.3-29.7L5.3-29.7 3.6-29.6 3.5-29.8 3.85-32Q8.95-31.85 10.8-31.85L10.8-31.85Q16.75-31.85 20.05-31.98 23.35-32.1 25.8-32.45L25.8-32.45 25.95-32.15Q25.05-28.2 24.8-23.85L24.8-23.85 22.4-23.65 22.5-25.8Q22.5-27.55 22.05-28.23 21.6-28.9 20.1-29.13 18.6-29.35 14.85-29.35L14.85-29.35Q13.1-29.35 12.45-29.25 11.8-29.15 11.6-28.78 11.4-28.4 11.35-27.4L11.35-27.4 10.95-17.7 16.1-17.65Q18.05-17.65 22.2-18.2L22.2-18.2 22.4-17.95 21.7-15Q16.15-15.15 14.7-15.15L14.7-15.15Q13.05-15.15 10.85-14.8L10.85-14.8 10.65-5.25Q10.65-3.8 10.9-3.23 11.15-2.65 11.93-2.45 12.7-2.25 14.6-2.25L14.6-2.25Q18.8-2.25 20.58-2.65 22.35-3.05 23.1-4.25 23.85-5.45 24.25-8.35L24.25-8.35 26.45-8.6ZM42.45 0.85Q41.7-1.65 39.07-10.15 36.45-18.65 33.8-26.8L33.8-26.8Q33.35-28.25 32.25-28.93 31.15-29.6 29.2-29.65L29.2-29.65 29.1-29.85 29.45-32Q30.1-32 31.87-31.93 33.65-31.85 35.25-31.85L35.25-31.85Q36.9-31.85 39.42-32.08 41.95-32.3 42.75-32.4L42.75-32.4 42.9-32.05 42.7-30.1Q40-29.9 39.12-29.5 38.25-29.1 38.25-28L38.25-28Q38.25-27 40.9-17.63 43.55-8.25 44.55-4.85L44.55-4.85 45-4.85Q53.3-26.25 53.3-27.85L53.3-27.85Q53.3-28.9 52.5-29.38 51.7-29.85 49.85-29.85L49.85-29.85 47.25-29.85 47.15-30.05 47.45-32.2Q48.1-32.15 50.32-32 52.55-31.85 54.6-31.85L54.6-31.85Q56.45-31.85 58.02-31.9 59.6-31.95 60.1-32L60.1-32 59.7-29.65Q58.15-29.6 57.55-29.15 56.95-28.7 56.4-27.25L56.4-27.25 45.65-0.25 42.45 0.85ZM86.5-8.6L86.65-8.35Q85.8-4.3 85.3 0.05L85.3 0.05 85.05 0.35Q74.55 0 69.9 0L69.9 0Q66.2 0 62.95 0.5L62.95 0.5 63.25-1.8Q65.5-2.1 66.32-2.98 67.14-3.85 67.14-6L67.14-6 67.2-27Q67.2-28.6 66.82-29.15 66.45-29.7 65.34-29.7L65.34-29.7 63.65-29.6 63.55-29.8 63.9-32Q69-31.85 70.84-31.85L70.84-31.85Q76.8-31.85 80.09-31.98 83.4-32.1 85.84-32.45L85.84-32.45 86-32.15Q85.09-28.2 84.84-23.85L84.84-23.85 82.45-23.65 82.55-25.8Q82.55-27.55 82.09-28.23 81.65-28.9 80.15-29.13 78.65-29.35 74.9-29.35L74.9-29.35Q73.15-29.35 72.5-29.25 71.84-29.15 71.65-28.78 71.45-28.4 71.4-27.4L71.4-27.4 71-17.7 76.15-17.65Q78.09-17.65 82.25-18.2L82.25-18.2 82.45-17.95 81.75-15Q76.2-15.15 74.75-15.15L74.75-15.15Q73.09-15.15 70.9-14.8L70.9-14.8 70.7-5.25Q70.7-3.8 70.95-3.23 71.2-2.65 71.97-2.45 72.75-2.25 74.65-2.25L74.65-2.25Q78.84-2.25 80.62-2.65 82.4-3.05 83.15-4.25 83.9-5.45 84.3-8.35L84.3-8.35 86.5-8.6ZM118.09 2Q113.74-4.75 109.62-10.88 105.49-17 102.84-20.78 100.19-24.55 99.49-25.55L99.49-25.55 99.24-25.55 98.99-4.2Q98.99-3.1 99.34-2.65 99.69-2.2 100.54-2.2L100.54-2.2 103.09-2.25 103.19-2.05 102.74 0.2Q102.19 0.15 100.49 0.08 98.79 0 97.44 0L97.44 0Q96.19 0 94.72 0.18 93.24 0.35 92.79 0.4L92.79 0.4 93.04-1.9Q94.59-2.1 95.34-2.83 96.09-3.55 96.14-5.05L96.14-5.05 96.79-26.9Q96.79-28.45 95.87-29.1 94.94-29.75 92.44-30L92.44-30 92.29-30.25 92.69-32.1Q93.14-32.05 94.64-31.95 96.14-31.85 96.99-31.85L96.99-31.85Q98.04-31.85 99.04-31.93 100.04-32 100.34-32.05L100.34-32.05Q104.04-26.3 107.77-20.8 111.49-15.3 113.99-11.75 116.49-8.2 117.14-7.25L117.14-7.25 117.39-7.25 117.39-27.5Q117.39-29.65 115.74-29.65L115.74-29.65 113.84-29.6 113.74-29.8 114.19-32.05Q114.69-32 116.09-31.93 117.49-31.85 118.94-31.85L118.94-31.85Q120.24-31.85 121.82-32.02 123.39-32.2 123.89-32.25L123.89-32.25 123.64-29.95Q121.89-29.7 121.09-28.98 120.29-28.25 120.24-26.8L120.24-26.8 119.54 1.3 118.09 2ZM130.79 0.2L131.19-1.95Q133.69-2.15 134.64-2.58 135.59-3 135.89-4.13 136.19-5.25 136.19-8.1L136.19-8.1 136.19-29.9Q131.94-29.75 130.42-29.43 128.89-29.1 128.34-27.98 127.79-26.85 127.34-23.6L127.34-23.6 124.99-23.4Q125.59-28.15 125.74-32.05L125.74-32.05 126.19-32.45 130.34-31.9 145.84-31.9 150.09-32.45 150.54-32.05Q150.69-27.95 151.29-23.6L151.29-23.6 148.94-23.4Q148.39-26.7 147.84-27.85 147.29-29 145.89-29.35 144.49-29.7 140.49-29.9L140.49-29.9Q140.19-26.9 139.94-19.3 139.69-11.7 139.69-5.6L139.69-5.6Q139.69-3.75 140.34-2.98 140.99-2.2 142.54-2.2L142.54-2.2Q144.04-2.2 145.29-2.35L145.29-2.35 145.44-2.15 144.99 0.15 143.34 0.1 137.64 0Q134.89 0 130.79 0.2L130.79 0.2ZM167.09 0.6Q163.04 0.6 159.89-1.35 156.74-3.3 154.99-6.83 153.24-10.35 153.24-14.85L153.24-14.85Q153.24-19.75 155.41-23.78 157.59-27.8 161.36-30.13 165.14-32.45 169.69-32.45L169.69-32.45Q173.84-32.45 177.04-30.5 180.24-28.55 182.04-25.05 183.84-21.55 183.84-17.05L183.84-17.05Q183.84-12.15 181.61-8.1 179.39-4.05 175.56-1.73 171.74 0.6 167.09 0.6L167.09 0.6ZM168.64-1.95Q171.79-1.95 174.24-3.6 176.69-5.25 178.04-8.2 179.39-11.15 179.39-14.95L179.39-14.95Q179.39-19.2 177.94-22.48 176.49-25.75 173.91-27.6 171.34-29.45 167.99-29.45L167.99-29.45Q164.94-29.45 162.56-27.8 160.19-26.15 158.86-23.2 157.54-20.25 157.54-16.45L157.54-16.45Q157.54-12.2 158.94-8.93 160.34-5.65 162.86-3.8 165.39-1.95 168.64-1.95L168.64-1.95ZM188.99 0.4L189.34-1.9Q191.53-2.3 192.24-3.08 192.94-3.85 192.94-6L192.94-6 192.99-27Q192.99-28.6 192.61-29.15 192.24-29.7 191.14-29.7L191.14-29.7Q190.64-29.7 190.14-29.65 189.64-29.6 189.44-29.6L189.44-29.6 189.34-29.8 189.69-32Q190.28-31.95 191.94-31.9 193.59-31.85 195.24-31.85L195.24-31.85Q196.78-31.85 198.76-31.93 200.74-32 201.53-32.05L201.53-32.05Q206.74-32.05 209.49-29.75 212.24-27.45 212.24-23.15L212.24-23.15Q212.24-20.35 210.61-17.82 208.99-15.3 206.34-13.75 203.69-12.2 200.78-12.2L200.78-12.2 196.59-12.2 196.49-7.3Q196.49-4.9 196.64-3.88 196.78-2.85 197.21-2.53 197.64-2.2 198.69-2.2L198.69-2.2Q199.53-2.2 200.31-2.25 201.09-2.3 201.39-2.35L201.39-2.35 201.49-2.15 201.03 0.15Q200.53 0.1 199.21 0.05 197.89 0 196.44 0L196.44 0Q194.44 0 191.76 0.15 189.09 0.3 188.99 0.4L188.99 0.4ZM201.99-14.4Q204.99-14.9 206.51-16.85 208.04-18.8 208.04-22.2L208.04-22.2Q208.04-26.05 205.76-27.83 203.49-29.6 198.64-29.6L198.64-29.6Q197.74-29.6 197.53-29.5 197.34-29.4 197.28-28.9L197.28-28.9Q196.84-22.55 196.69-15.15L196.69-15.15 201.99-14.4ZM216.18 0.6L216.48-1.7Q218.83-2.15 219.66-3.03 220.48-3.9 220.48-6L220.48-6 220.53-27Q220.53-28.6 220.16-29.15 219.78-29.7 218.68-29.7L218.68-29.7 216.58-29.6 216.48-29.8 216.83-32Q217.63-32 218.08-31.95L218.08-31.95 222.78-31.85Q225.03-31.85 228.53-32.3L228.53-32.3 228.33-30.05Q226.28-29.8 225.56-29.23 224.83-28.65 224.73-27.2L224.73-27.2Q224.43-21.35 224.23-14.98 224.03-8.6 224.03-5.6L224.03-5.6Q224.03-3.55 224.48-2.88 224.93-2.2 226.23-2.2L226.23-2.2Q227.08-2.2 228.88-2.35L228.88-2.35 228.98-2.15 228.53 0.15Q227.83 0.15 227.43 0.1L227.43 0.1Q223.93 0 221.98 0L221.98 0Q219.53 0 216.18 0.6L216.18 0.6ZM247.53 0.5L247.38 0.15 247.58-1.8Q250.13-2 251.08-2.4 252.03-2.8 252.03-3.7L252.03-3.7Q252.03-4.7 251.58-6.1L251.58-6.1 249.93-11.55Q248.73-11.6 244.73-11.6L244.73-11.6Q242.33-11.6 239.28-11.2L239.28-11.2 237.43-6Q236.98-4.65 236.98-4.05L236.98-4.05Q236.98-2.95 237.68-2.48 238.38-2 239.98-2L239.98-2 242.83-2 242.93-1.8 242.63 0.35Q242.03 0.3 239.88 0.15 237.73 0 235.68 0L235.68 0Q233.83 0 232.26 0.05 230.68 0.1 230.18 0.15L230.18 0.15 230.58-2.2Q231.98-2.35 232.83-3.18 233.68-4 234.48-6.05L234.48-6.05 244.23-31.6 247.38-32.45 247.78-32.45Q248.08-31.25 249.31-26.9 250.53-22.55 252.31-16.6 254.08-10.65 255.73-5.65L255.73-5.65Q256.33-3.8 257.33-3.05 258.33-2.3 260.53-2.1L260.53-2.1 260.63-1.9 260.28 0.15Q259.68 0.15 258.11 0.08 256.53 0 254.98 0L254.98 0Q252.58 0 250.36 0.2 248.13 0.4 247.53 0.5L247.53 0.5ZM240.18-13.65L244.58-13.65Q246.38-13.65 249.23-13.9L249.23-13.9 245.28-27 244.93-27 240.18-13.65Z" opacity="1" transform="matrix(1,0,0,1,0,0)" fill="#000000" class="wordmark-text-0" data-fill-palette-color="primary" id="text-0"></path></svg></g></svg></g></svg></g></svg></g><g transform="matrix(1,0,0,1,425.2471035892658,0)"><svg viewBox="0 0 78.39469770081138 73.05787642289042" height="73.05787642289042" width="78.39469770081138"><g><svg xmlns="http://www.w3.org/2000/svg" xmlns:xlink="http://www.w3.org/1999/xlink" version="1.1" x="0" y="0" viewBox="3.346999168395996 4.473006248474121 44.052955627441406 41.053993225097656" enable-background="new 0 0 50 50" xml:space="preserve" height="73.05787642289042" width="78.39469770081138" class="icon-icon-0" data-fill-palette-color="accent" id="icon-0"><g fill="#c20e0e" data-fill-palette-color="accent"><g fill="#c20e0e" data-fill-palette-color="accent"><g fill="#c20e0e" data-fill-palette-color="accent"><g fill="#c20e0e" data-fill-palette-color="accent"><path fill="#c20e0e" d="M42.479 9.979c0.248-0.228 0.178-0.433-0.158-0.458l-2.637-0.197c-0.336-0.024-0.729 0.201-0.877 0.503l-2.832 5.791c-0.15 0.3-0.066 0.362 0.182 0.136L42.479 9.979z" data-fill-palette-color="accent"></path></g><g fill="#c20e0e" data-fill-palette-color="accent"><path fill="#c20e0e" d="M28.115 8.46c-0.334-0.025-0.434 0.167-0.221 0.425l5.355 6.509c0.215 0.26 0.311 0.208 0.213-0.113l-1.785-5.981c-0.094-0.322-0.447-0.606-0.781-0.631L28.115 8.46z" data-fill-palette-color="accent"></path></g><g fill="#c20e0e" data-fill-palette-color="accent"><path fill="#c20e0e" d="M37.885 9.758c0.146-0.302-0.008-0.569-0.342-0.594l-4.514-0.337c-0.336-0.025-0.529 0.218-0.434 0.54l1.902 6.372c0.096 0.322 0.295 0.339 0.441 0.038L37.885 9.758z" data-fill-palette-color="accent"></path></g><g fill="#c20e0e" data-fill-palette-color="accent"><path fill="#c20e0e" d="M34.363 5.175c0.232-0.241 0.152-0.458-0.184-0.482l-2.912-0.218c-0.336-0.025-0.465 0.188-0.287 0.473l1.078 1.743c0.178 0.286 0.514 0.322 0.748 0.081L34.363 5.175z" data-fill-palette-color="accent"></path></g><g fill="#c20e0e" data-fill-palette-color="accent"><path fill="#c20e0e" d="M39.875 5.585c0.236-0.239 0.154-0.456-0.18-0.481L36.553 4.87c-0.336-0.025-0.453 0.18-0.262 0.455l1.246 1.783c0.191 0.276 0.541 0.307 0.775 0.066L39.875 5.585z" data-fill-palette-color="accent"></path></g><g fill="#c20e0e" data-fill-palette-color="accent"><path fill="#c20e0e" d="M27.91 7.102c-0.234 0.242-0.148 0.461 0.186 0.486l3.072 0.229c0.334 0.024 0.463-0.188 0.285-0.474l-1.154-1.865c-0.178-0.285-0.512-0.321-0.746-0.08L27.91 7.102z" data-fill-palette-color="accent"></path></g><g fill="#c20e0e" data-fill-palette-color="accent"><path fill="#c20e0e" d="M42.465 8.662c0.334 0.024 0.449-0.18 0.254-0.453l-1.416-1.993c-0.195-0.274-0.549-0.303-0.783-0.063l-1.734 1.766c-0.234 0.24-0.154 0.457 0.18 0.481L42.465 8.662z" data-fill-palette-color="accent"></path></g><g fill="#c20e0e" data-fill-palette-color="accent"><path fill="#c20e0e" d="M33.291 7.507c-0.234 0.241-0.154 0.457 0.182 0.482l3.223 0.241c0.334 0.024 0.451-0.182 0.26-0.455l-1.289-1.849c-0.193-0.273-0.543-0.303-0.777-0.063L33.291 7.507z" data-fill-palette-color="accent"></path></g></g><path fill="#c20e0e" d="M24.078 17.734l-2.811-1.051c1.155-3.089 3.403-5.645 6.331-7.195l1.404 2.65C26.725 13.346 24.975 15.333 24.078 17.734z" data-fill-palette-color="accent"></path><path fill="#c20e0e" d="M33.916 34.913c-0.336 0-0.674-0.013-1.014-0.038-6.162-0.46-11.215-5.027-12.287-11.107l2.955-0.521c0.833 4.728 4.761 8.279 9.554 8.636 5.773 0.418 10.816-3.913 11.246-9.684 0.252-3.364-1.146-6.67-3.74-8.84l1.926-2.301c3.332 2.789 5.129 7.037 4.807 11.364C46.834 29.503 40.902 34.912 33.916 34.913z" data-fill-palette-color="accent"></path></g><path fill="#c20e0e" d="M17.248 45.527c-7.665 0-13.901-6.236-13.901-13.901 0-7.666 6.236-13.901 13.901-13.901 6.594 0 12.323 4.685 13.625 11.138l-2.941 0.594c-1.02-5.06-5.513-8.732-10.684-8.732-6.011 0-10.901 4.89-10.901 10.901 0 6.011 4.891 10.901 10.901 10.901 4.785 0 9.083-3.199 10.448-7.779l2.875 0.857C28.828 41.447 23.35 45.527 17.248 45.527z" data-fill-palette-color="accent"></path></g></svg></g></svg></g></svg></g><defs></defs></svg><rect width="395.52" height="57.373814502221556" fill="none" stroke="none" visibility="hidden"></rect></g></svg></g></svg>